<?xml version="1.0" encoding="utf-8"?>
<!-- Generator: Adobe Illustrator 22.0.1, SVG Export Plug-In . SVG Version: 6.00 Build 0)  -->
<svg version="1.1" id="Layer_1" xmlns="http://www.w3.org/2000/svg" xmlns:xlink="http://www.w3.org/1999/xlink" x="0px" y="0px"
	 viewBox="0 0 280 59" style="enable-background:new 0 0 280 59;" xml:space="preserve">
<style type="text/css">
	.st0{fill:#FFFFFF;}
	.st1{font-family: 'Nunito Sans', sans-serif;font-weight:700;}
	.st2{font-size:26.2317px;}
</style>
<text transform="matrix(1 0 0 1 87.5991 39.8008)" class="st0 st1 st2">Solar Seller</text>
<path class="st0" d="M53.8,17.8l0.1,0.2c1.1,1,2.6,0.7,3.5-0.6l3-5.1c0.9-1.4,0.4-1.7-1.1-1l-4.9,3C52.7,15.2,52.6,16.8,53.8,17.8z"
	/>
<path class="st0" d="M38.2,11.6l0.5,0.1c1.8,0.1,3-1.2,2.7-3.2L40,1.9c-0.4-2-1.1-2-1.8-0.1L36,8.5C35.4,9.8,36.3,11.5,38.2,11.6z"
	/>
<path class="st0" d="M22.1,16.9l0.2-0.1c1.4-1,1.1-2.5,0-3.5l-4.2-3.7c-1.4-0.9-1.8-0.6-1.4,1l2,5.4C19.7,17.6,21,17.8,22.1,16.9z"
	/>
<path class="st0" d="M9.9,32.9c1.5,0.9,3.1,0,3.3-1.5l0.1-0.4c0.5-1.6-0.6-3.1-2.7-3.1l-6,0.1c-1.7-0.1-2,0.7-0.5,1.6L9.9,32.9z"/>
<path class="st0" d="M70.9,31.2l-6.4-1c-1.7-0.1-3,0.9-2.8,2.5l0.1,0.2c0.1,1.6,1.7,2.5,3.5,2l5.7-2.3
	C72.7,31.9,72.7,31.3,70.9,31.2z"/>
<path class="st0" d="M15.1,50.1v-0.2c-0.5-1.5-1.8-2-3.2-1.2l-4.9,3c-1.4,0.9-1.1,1.4,0.5,1.4l5.7-0.1
	C14.9,52.8,15.7,51.4,15.1,50.1z"/>
<path class="st0" d="M66.9,53.3l-4-4.3c-1.2-1-2.6-1-3.5,0.2v0.2c-0.7,1.2-0.2,2.7,1.4,3.3l5.3,1.5C67.6,55.1,68,54.6,66.9,53.3z"/>
<path class="st0" d="M41.4,42.5"/>
<path class="st0" d="M29.6,44"/>
<path class="st0" d="M25.7,44"/>
<path class="st0" d="M59.6,36.8C59,25.7,50,16.7,38.9,16.2c-12.6-0.5-22.8,9.7-22.6,22.1c0.1,8.5,5.3,15.9,12.7,19.3h0.1
	c1.5,0.7,3.2,0.9,4.8,0.5c0,0,6.4-1,7-7.5h0.7c0.9,0,1.7-0.6,1.8-1.6c0.4-2.1,1.2-4.1,2.7-5.5c2-2,3.1-4.7,3.1-7.8
	c0-6.2-5.1-11.2-11.2-11.1c-6.2,0-11.1,5.1-11.1,11.2c0,3,1.2,5.7,3.1,7.6c1.5,1.5,2.5,3.5,2.7,5.5c0.1,0.9,0.9,1.6,1.8,1.6h0.4h2
	c-0.2,4.1-3.5,4.4-4.9,4.4c-0.1,0-0.2,0-0.4,0c-0.1,0-0.1,0-0.2,0h-0.1h-0.1l0,0c-0.4,0-0.6-0.1-1-0.2h-0.1
	c-7.1-3.2-11.8-11-10.6-19.5c1.1-7.9,7.6-14.3,15.5-15.4c11.3-1.6,21,6.8,21.2,17.6c0.1,7.4-4.1,13.7-10.1,16.8
	c-0.9,0.4-1.1,1.5-0.7,2.2c0.4,0.9,1.5,1.2,2.2,0.7C55,53.5,60,45.7,59.6,36.8z M36.4,44.6c-0.2,0.2-0.5,0.2-0.7,0.1
	c-0.2-0.1-0.4-0.5-0.2-0.7l2.1-4.3l-3.1-1c-0.2-0.1-0.4-0.2-0.4-0.5c0-0.2,0-0.4,0.1-0.6l6.2-6.2c0.2-0.2,0.5-0.2,0.7-0.1
	s0.4,0.5,0.2,0.7l-2.1,4.3l3.1,1c0.2,0.1,0.4,0.2,0.4,0.5c0,0.2,0,0.4-0.1,0.6L36.4,44.6z"/>
</svg>
